<svg xmlns="http://www.w3.org/2000/svg" xmlns:xlink="http://www.w3.org/1999/xlink" width="118" height="40" preserveAspectRatio="xMidYMid meet" version="1.0" viewBox="0 0 88.5 30" zoomAndPan="magnify"><defs><clipPath id="8abbbf2487"><path d="M 83 16 L 86.832031 16 L 86.832031 20 L 83 20 Z M 83 16" clip-rule="nonzero"/></clipPath></defs><g fill="#203556" fill-opacity="1"><g><g><path d="M 3.53125 -8.546875 L 3.53125 -6.390625 L 6.984375 -6.390625 L 6.984375 -4.40625 L 3.53125 -4.40625 L 3.53125 -2.078125 L 7.4375 -2.078125 L 7.4375 0 L 0.9375 0 L 0.9375 -10.625 L 7.4375 -10.625 L 7.4375 -8.546875 Z M 3.53125 -8.546875" transform="translate(1.202675, 19.37257)"/></g></g></g><g fill="#203556" fill-opacity="1"><g><g><path d="M 3.53125 -7.03125 C 3.832031 -7.5 4.207031 -7.863281 4.65625 -8.125 C 5.113281 -8.394531 5.617188 -8.53125 6.171875 -8.53125 L 6.171875 -5.796875 L 5.453125 -5.796875 C 4.804688 -5.796875 4.320312 -5.65625 4 -5.375 C 3.6875 -5.101562 3.53125 -4.617188 3.53125 -3.921875 L 3.53125 0 L 0.9375 0 L 0.9375 -8.4375 L 3.53125 -8.4375 Z M 3.53125 -7.03125" transform="translate(9.378432, 19.37257)"/></g></g></g><g fill="#203556" fill-opacity="1"><g><g><path d="M 3.53125 -7.03125 C 3.832031 -7.5 4.207031 -7.863281 4.65625 -8.125 C 5.113281 -8.394531 5.617188 -8.53125 6.171875 -8.53125 L 6.171875 -5.796875 L 5.453125 -5.796875 C 4.804688 -5.796875 4.320312 -5.65625 4 -5.375 C 3.6875 -5.101562 3.53125 -4.617188 3.53125 -3.921875 L 3.53125 0 L 0.9375 0 L 0.9375 -8.4375 L 3.53125 -8.4375 Z M 3.53125 -7.03125" transform="translate(15.846493, 19.37257)"/></g></g></g><g fill="#203556" fill-opacity="1"><g><g><path d="M 4.78125 0.125 C 3.957031 0.125 3.210938 -0.0507812 2.546875 -0.40625 C 1.890625 -0.757812 1.367188 -1.265625 0.984375 -1.921875 C 0.609375 -2.578125 0.421875 -3.34375 0.421875 -4.21875 C 0.421875 -5.082031 0.613281 -5.84375 1 -6.5 C 1.382812 -7.164062 1.90625 -7.675781 2.5625 -8.03125 C 3.226562 -8.382812 3.976562 -8.5625 4.8125 -8.5625 C 5.632812 -8.5625 6.378906 -8.382812 7.046875 -8.03125 C 7.710938 -7.675781 8.238281 -7.164062 8.625 -6.5 C 9.007812 -5.84375 9.203125 -5.082031 9.203125 -4.21875 C 9.203125 -3.351562 9.003906 -2.585938 8.609375 -1.921875 C 8.222656 -1.265625 7.691406 -0.757812 7.015625 -0.40625 C 6.347656 -0.0507812 5.601562 0.125 4.78125 0.125 Z M 4.78125 -2.125 C 5.269531 -2.125 5.6875 -2.300781 6.03125 -2.65625 C 6.382812 -3.019531 6.5625 -3.539062 6.5625 -4.21875 C 6.5625 -4.894531 6.390625 -5.414062 6.046875 -5.78125 C 5.710938 -6.144531 5.300781 -6.328125 4.8125 -6.328125 C 4.300781 -6.328125 3.878906 -6.144531 3.546875 -5.78125 C 3.222656 -5.425781 3.0625 -4.90625 3.0625 -4.21875 C 3.0625 -3.539062 3.222656 -3.019531 3.546875 -2.65625 C 3.867188 -2.300781 4.28125 -2.125 4.78125 -2.125 Z M 4.78125 -2.125" transform="translate(22.314554, 19.37257)"/></g></g></g><g fill="#203556" fill-opacity="1"><g><g><path d="M 3.53125 -7.03125 C 3.832031 -7.5 4.207031 -7.863281 4.65625 -8.125 C 5.113281 -8.394531 5.617188 -8.53125 6.171875 -8.53125 L 6.171875 -5.796875 L 5.453125 -5.796875 C 4.804688 -5.796875 4.320312 -5.65625 4 -5.375 C 3.6875 -5.101562 3.53125 -4.617188 3.53125 -3.921875 L 3.53125 0 L 0.9375 0 L 0.9375 -8.4375 L 3.53125 -8.4375 Z M 3.53125 -7.03125" transform="translate(31.941092, 19.37257)"/></g></g></g><g fill="#203556" fill-opacity="1"><g><g><path d="M 5.640625 -2.1875 L 5.640625 0 L 4.328125 0 C 3.390625 0 2.65625 -0.226562 2.125 -0.6875 C 1.601562 -1.144531 1.34375 -1.894531 1.34375 -2.9375 L 1.34375 -6.296875 L 0.3125 -6.296875 L 0.3125 -8.4375 L 1.34375 -8.4375 L 1.34375 -10.5 L 3.9375 -10.5 L 3.9375 -8.4375 L 5.625 -8.4375 L 5.625 -6.296875 L 3.9375 -6.296875 L 3.9375 -2.90625 C 3.9375 -2.65625 3.992188 -2.472656 4.109375 -2.359375 C 4.234375 -2.242188 4.4375 -2.1875 4.71875 -2.1875 Z M 5.640625 -2.1875" transform="translate(38.409153, 19.37257)"/></g></g></g><g fill="#203556" fill-opacity="1"><g><g><path d="M 4.78125 0.125 C 3.957031 0.125 3.210938 -0.0507812 2.546875 -0.40625 C 1.890625 -0.757812 1.367188 -1.265625 0.984375 -1.921875 C 0.609375 -2.578125 0.421875 -3.34375 0.421875 -4.21875 C 0.421875 -5.082031 0.613281 -5.84375 1 -6.5 C 1.382812 -7.164062 1.90625 -7.675781 2.5625 -8.03125 C 3.226562 -8.382812 3.976562 -8.5625 4.8125 -8.5625 C 5.632812 -8.5625 6.378906 -8.382812 7.046875 -8.03125 C 7.710938 -7.675781 8.238281 -7.164062 8.625 -6.5 C 9.007812 -5.84375 9.203125 -5.082031 9.203125 -4.21875 C 9.203125 -3.351562 9.003906 -2.585938 8.609375 -1.921875 C 8.222656 -1.265625 7.691406 -0.757812 7.015625 -0.40625 C 6.347656 -0.0507812 5.601562 0.125 4.78125 0.125 Z M 4.78125 -2.125 C 5.269531 -2.125 5.6875 -2.300781 6.03125 -2.65625 C 6.382812 -3.019531 6.5625 -3.539062 6.5625 -4.21875 C 6.5625 -4.894531 6.390625 -5.414062 6.046875 -5.78125 C 5.710938 -6.144531 5.300781 -6.328125 4.8125 -6.328125 C 4.300781 -6.328125 3.878906 -6.144531 3.546875 -5.78125 C 3.222656 -5.425781 3.0625 -4.90625 3.0625 -4.21875 C 3.0625 -3.539062 3.222656 -3.019531 3.546875 -2.65625 C 3.867188 -2.300781 4.28125 -2.125 4.78125 -2.125 Z M 4.78125 -2.125" transform="translate(44.544745, 19.37257)"/></g></g></g><g fill="#203556" fill-opacity="1"><g><g><path d="M 0.59375 -2.078125 C 0.9375 -2.347656 1.09375 -2.472656 1.0625 -2.453125 C 2.050781 -3.265625 2.828125 -3.929688 3.390625 -4.453125 C 3.960938 -4.984375 4.445312 -5.535156 4.84375 -6.109375 C 5.238281 -6.679688 5.4375 -7.242188 5.4375 -7.796875 C 5.4375 -8.203125 5.335938 -8.519531 5.140625 -8.75 C 4.953125 -8.988281 4.664062 -9.109375 4.28125 -9.109375 C 3.894531 -9.109375 3.59375 -8.960938 3.375 -8.671875 C 3.164062 -8.390625 3.0625 -7.984375 3.0625 -7.453125 L 0.5625 -7.453125 C 0.582031 -8.316406 0.765625 -9.035156 1.109375 -9.609375 C 1.460938 -10.179688 1.921875 -10.601562 2.484375 -10.875 C 3.054688 -11.144531 3.691406 -11.28125 4.390625 -11.28125 C 5.585938 -11.28125 6.488281 -10.972656 7.09375 -10.359375 C 7.707031 -9.742188 8.015625 -8.941406 8.015625 -7.953125 C 8.015625 -6.878906 7.644531 -5.878906 6.90625 -4.953125 C 6.175781 -4.023438 5.238281 -3.125 4.09375 -2.25 L 8.1875 -2.25 L 8.1875 -0.15625 L 0.59375 -0.15625 Z M 0.59375 -2.078125" transform="translate(54.171283, 19.37257)"/></g></g></g><g fill="#203556" fill-opacity="1"><g><g><path d="M 0.6875 -5.671875 C 0.6875 -7.398438 1.019531 -8.765625 1.6875 -9.765625 C 2.351562 -10.765625 3.4375 -11.265625 4.9375 -11.265625 C 6.425781 -11.265625 7.503906 -10.765625 8.171875 -9.765625 C 8.847656 -8.765625 9.1875 -7.398438 9.1875 -5.671875 C 9.1875 -3.921875 8.847656 -2.546875 8.171875 -1.546875 C 7.503906 -0.546875 6.425781 -0.046875 4.9375 -0.046875 C 3.4375 -0.046875 2.351562 -0.546875 1.6875 -1.546875 C 1.019531 -2.546875 0.6875 -3.921875 0.6875 -5.671875 Z M 6.640625 -5.671875 C 6.640625 -6.691406 6.523438 -7.472656 6.296875 -8.015625 C 6.078125 -8.566406 5.625 -8.84375 4.9375 -8.84375 C 4.238281 -8.84375 3.773438 -8.566406 3.546875 -8.015625 C 3.328125 -7.472656 3.21875 -6.691406 3.21875 -5.671875 C 3.21875 -4.984375 3.257812 -4.414062 3.34375 -3.96875 C 3.425781 -3.519531 3.585938 -3.15625 3.828125 -2.875 C 4.078125 -2.601562 4.445312 -2.46875 4.9375 -2.46875 C 5.414062 -2.46875 5.773438 -2.601562 6.015625 -2.875 C 6.265625 -3.15625 6.429688 -3.519531 6.515625 -3.96875 C 6.597656 -4.414062 6.640625 -4.984375 6.640625 -5.671875 Z M 6.640625 -5.671875" transform="translate(62.800412, 19.37257)"/></g></g></g><g fill="#203556" fill-opacity="1"><g><g><path d="M 0.6875 -5.671875 C 0.6875 -7.398438 1.019531 -8.765625 1.6875 -9.765625 C 2.351562 -10.765625 3.4375 -11.265625 4.9375 -11.265625 C 6.425781 -11.265625 7.503906 -10.765625 8.171875 -9.765625 C 8.847656 -8.765625 9.1875 -7.398438 9.1875 -5.671875 C 9.1875 -3.921875 8.847656 -2.546875 8.171875 -1.546875 C 7.503906 -0.546875 6.425781 -0.046875 4.9375 -0.046875 C 3.4375 -0.046875 2.351562 -0.546875 1.6875 -1.546875 C 1.019531 -2.546875 0.6875 -3.921875 0.6875 -5.671875 Z M 6.640625 -5.671875 C 6.640625 -6.691406 6.523438 -7.472656 6.296875 -8.015625 C 6.078125 -8.566406 5.625 -8.84375 4.9375 -8.84375 C 4.238281 -8.84375 3.773438 -8.566406 3.546875 -8.015625 C 3.328125 -7.472656 3.21875 -6.691406 3.21875 -5.671875 C 3.21875 -4.984375 3.257812 -4.414062 3.34375 -3.96875 C 3.425781 -3.519531 3.585938 -3.15625 3.828125 -2.875 C 4.078125 -2.601562 4.445312 -2.46875 4.9375 -2.46875 C 5.414062 -2.46875 5.773438 -2.601562 6.015625 -2.875 C 6.265625 -3.15625 6.429688 -3.519531 6.515625 -3.96875 C 6.597656 -4.414062 6.640625 -4.984375 6.640625 -5.671875 Z M 6.640625 -5.671875" transform="translate(72.653628, 19.37257)"/></g></g></g><g clip-path="url(#8abbbf2487)"><g fill="#fe4f70" fill-opacity="1"><g><g><path d="M 2.140625 0.125 C 1.691406 0.125 1.320312 -0.0078125 1.03125 -0.28125 C 0.75 -0.550781 0.609375 -0.878906 0.609375 -1.265625 C 0.609375 -1.671875 0.75 -2.007812 1.03125 -2.28125 C 1.320312 -2.550781 1.691406 -2.6875 2.140625 -2.6875 C 2.585938 -2.6875 2.953125 -2.550781 3.234375 -2.28125 C 3.523438 -2.007812 3.671875 -1.671875 3.671875 -1.265625 C 3.671875 -0.878906 3.523438 -0.550781 3.234375 -0.28125 C 2.953125 -0.0078125 2.585938 0.125 2.140625 0.125 Z M 2.140625 0.125" transform="translate(82.558265, 19.37257)"/></g></g></g></g></svg>